<mxfile host="app.diagrams.net" modified="2023-04-15T10:07:47.227Z" agent="Mozilla/5.0 (Macintosh; Intel Mac OS X 10_15_7) AppleWebKit/605.1.15 (KHTML, like Gecko) Version/15.4 Safari/605.1.15" version="21.1.8" etag="V6xI7MImgQokQDgKy99F" type="github">
  <diagram name="Page-1" id="maSjlXkNCsPo5vldpdQP">
    <mxGraphModel>
      <root>
        <mxCell id="0" />
        <mxCell id="1" parent="0" />
      </root>
    </mxGraphModel>
  </diagram>
</mxfile>
